<svg width="128" height="60" viewBox="0 0 128 60" fill="none" xmlns="http://www.w3.org/2000/svg">
<path d="M102.012 13.0684V7.02441L95.8242 7.73227L102.012 13.0684Z" fill="#D83D14"/>
<path d="M106.062 24.9952L103.65 24.76C99.9421 24.3984 98.0879 24.2175 97.2591 24.3853C96.2662 24.5863 95.682 25.0272 95.7997 25.4867C95.898 25.8703 97.2441 26.4346 99.9363 27.5631L89.7873 31.8174L62.3574 20.3193L77.4438 13.9954C80.0649 12.8967 82.7054 12.1255 85.3652 11.6818C87.9992 11.2273 90.4578 11.0953 92.741 11.2859C95.0289 11.4528 97.0252 11.8936 98.7299 12.6082C100.564 13.3769 101.581 14.3145 101.783 15.421C101.865 15.8081 101.83 16.2023 101.678 16.6035C101.282 17.6502 101.084 18.1735 101.266 18.4179C101.464 18.6846 101.638 18.7892 102.167 18.9593C102.652 19.1153 103.555 19.19 105.363 19.3394L117.217 20.3193L106.062 24.9952ZM82.0372 20.0601C83.321 20.5983 85.4025 20.5983 86.6863 20.0601L88.3848 19.3482C89.3601 18.9394 89.9107 18.557 90.0368 18.201C90.137 17.8342 89.7868 17.4829 88.9861 17.1473C88.2629 16.8442 87.4356 16.7146 86.5042 16.7585C85.6033 16.7897 84.6805 17.0033 83.7357 17.3993L82.0372 18.1113C80.7534 18.6495 80.7534 19.522 82.0372 20.0601Z" fill="#D83D14"/>
<path d="M117.131 20.3102V11.5437L89.583 13.7217L95.5554 22.8694L117.131 20.3102Z" fill="#D83D14"/>
<path d="M62.4111 20.3649V11.5439L99.8597 18.7314V27.5524L62.4111 20.3649Z" fill="#D83D14"/>
<rect x="78.7139" y="6.75195" width="14.3122" height="6.86077" fill="white"/>
<path d="M105.237 10.7863L115.892 11.6671L105.857 15.8733L103.798 15.6725L103.77 15.6697C101.94 15.4912 100.532 15.3539 99.4784 15.2829C98.9477 15.2472 98.4819 15.2264 98.0815 15.2276C97.6853 15.2287 97.3051 15.2511 96.9755 15.3178C95.7344 15.569 95.0042 16.1202 95.1513 16.6946C95.1904 16.8471 95.3459 16.9943 95.553 17.1359C95.7623 17.279 96.0505 17.4338 96.4034 17.6037C97.0241 17.9027 97.898 18.2734 99.0142 18.7418L89.7873 22.6095L63.2797 11.498L77.905 5.36741C80.481 4.28758 83.0493 3.54105 85.6063 3.11452L85.6063 3.11454L85.6134 3.11332C88.1553 2.67469 90.4822 2.55481 92.6137 2.7327L92.6137 2.73278L92.6292 2.73391C94.7795 2.89082 96.6552 3.3038 98.2688 3.98017C99.9899 4.70165 100.943 5.57762 101.133 6.62048L101.133 6.62048L101.133 6.62388C101.21 6.98772 101.178 7.35934 101.034 7.73932L101.031 7.74755C100.835 8.26393 100.685 8.66167 100.607 8.9605C100.532 9.24795 100.506 9.49424 100.643 9.67809C100.75 9.82183 100.867 9.94553 101.058 10.06C101.248 10.1745 101.485 10.2632 101.77 10.3549C102.12 10.4674 102.572 10.536 103.102 10.5948C103.635 10.6539 104.329 10.7113 105.213 10.7843L105.237 10.7863ZM90.6819 9.41981L90.6834 9.4153L90.6847 9.41078C90.8137 8.93845 90.3449 8.50899 89.4472 8.13272C88.6007 7.77787 87.5852 7.6123 86.4408 7.66513C85.3307 7.70486 84.2749 7.96542 83.2745 8.38477L81.5761 9.09674C80.0376 9.74164 80.0376 10.7872 81.5761 11.4321C83.1146 12.0771 85.6089 12.0771 87.1474 11.4322L88.8459 10.7202C89.8647 10.2931 90.5262 9.85951 90.6819 9.41981Z" fill="#D83D14" stroke="white"/>
<path d="M60.1937 21.8723L67.1163 30.5705C68.6272 32.4689 69.3827 33.4181 70.433 34.3045C71.3657 35.0916 72.4706 35.8408 73.7335 36.5424C75.1555 37.3324 76.8434 38.04 80.2193 39.4551L80.733 39.6704L71.1537 43.6858L70.6401 43.4705C67.2642 42.0554 65.5762 41.3479 63.6915 40.7518C62.0178 40.2224 60.2305 39.7593 58.3527 39.3683C56.2383 38.928 53.9738 38.6114 49.445 37.978L28.6943 35.0762L39.6544 30.4819C43.7825 31.1605 45.8466 31.4998 47.2007 31.4205C49.5085 31.2852 51.3226 30.5248 51.6452 29.5574C51.8345 28.9898 51.0251 28.1246 49.4062 26.3942L60.1937 21.8723Z" fill="#FFE600"/>
<path d="M28.7461 35.3408V25.0791L80.6455 29.8633V39.917L28.7461 35.3408Z" fill="#FFE600"/>
<path d="M49.3516 22.947V16.3948L53.3596 15.9268L56.6483 24.403L49.3516 22.947Z" fill="#FFE600"/>
<path d="M50.1692 16.4766L59.9089 12.3939L66.4977 20.6727L66.517 20.6969C68.0097 22.5725 68.7784 23.5383 69.8489 24.4417C70.7996 25.244 71.9258 26.0076 73.2129 26.7227C74.6623 27.5279 76.3799 28.2479 79.7152 29.646L79.7582 29.664L79.8107 29.686L71.1537 33.3149L71.1012 33.2929L71.0582 33.2748C67.7229 31.8767 66.0053 31.1567 64.0843 30.5492C62.3784 30.0097 60.5568 29.5376 58.6428 29.1391C56.4877 28.6903 54.1835 28.3681 49.709 27.7424L49.6513 27.7343L29.9014 24.9724L39.8137 20.8174C41.6759 21.1233 43.124 21.3592 44.2707 21.5116C45.4841 21.673 46.459 21.7556 47.291 21.7068C49.8873 21.5547 51.9281 20.6992 52.291 19.6109C52.4073 19.2622 52.2103 18.8535 51.8254 18.3448C51.4616 17.8642 50.8991 17.2571 50.1692 16.4766Z" fill="#FFE600" stroke="white"/>
<path d="M39.6888 40.9872C39.8202 41.8959 39.8858 42.3502 39.8966 42.3778C40.0853 42.8599 39.9251 42.7985 41.0875 42.8345C41.154 42.8366 42.208 42.8241 44.3162 42.7991C44.6476 42.7951 44.9785 42.7982 45.309 42.8081C47.7817 42.8571 49.8766 43.2414 51.5936 43.9611C54.2113 45.0584 55.2235 46.3331 54.6301 47.7853C54.0414 49.2119 51.8655 50.714 48.1024 52.2914L29.8922 59.9248L0 47.3945L17.7193 39.9669C21.2534 38.4855 24.6963 37.5969 28.048 37.301C31.3997 37.0051 34.3422 37.3881 36.8754 38.45C38.6206 39.1815 39.5584 40.0272 39.6888 40.9872ZM20.4385 46.8266C21.6044 47.3153 23.4947 47.3153 24.6606 46.8266L26.7708 45.9421C27.7525 45.5306 28.3035 45.158 28.4238 44.8244C28.5769 44.4771 28.3016 44.1559 27.5979 43.8609C26.8661 43.5542 26.0859 43.4329 25.2573 43.497C24.4333 43.5357 23.5304 43.7608 22.5487 44.1723L20.4385 45.0568C19.2726 45.5455 19.2726 46.3379 20.4385 46.8266ZM38.2311 50.1288C39.2128 49.7173 39.7778 49.3506 39.9263 49.0288C40.0794 48.6814 39.79 48.3544 39.0582 48.0476C37.6227 47.4459 35.9397 47.5497 34.009 48.3589L31.1626 49.5521C29.9967 50.0408 29.9967 50.8332 31.1626 51.3219C32.3284 51.8107 34.2187 51.8107 35.3846 51.3219L38.2311 50.1288Z" fill="#0067D1"/>
<path d="M19.5 32L40 35L41 44H18L19.5 32Z" fill="white"/>
<path d="M0.00292969 47.3612V38.0052L28.4401 46.8688L54.7768 37.3486V47.0329L29.8943 60.0001L0.00292969 47.3612Z" fill="#0067D1"/>
<path d="M39.0378 31.5077L39.0379 31.5086C39.1035 31.9629 39.1528 32.3039 39.187 32.5348C39.2041 32.6501 39.2175 32.7385 39.2274 32.7999L39.2281 32.8042C39.2359 32.8528 39.244 32.9039 39.2531 32.9269C39.269 32.9675 39.2839 33.0092 39.2982 33.0488C39.32 33.1095 39.3401 33.1654 39.3592 33.2057C39.3903 33.2713 39.4531 33.3904 39.6867 33.48C39.9203 33.5696 40.2089 33.5853 40.3677 33.5924C40.4651 33.5968 40.5998 33.6003 40.7457 33.604C40.8412 33.6064 40.9415 33.609 41.0394 33.612C41.095 33.6137 41.215 33.6127 41.328 33.6116L41.3376 33.6116C41.4805 33.6103 41.6858 33.6081 41.9536 33.6051C42.4896 33.5991 43.2808 33.5897 44.3347 33.5772C44.6443 33.5735 44.9534 33.5763 45.2621 33.5857L45.2621 33.5857L45.2782 33.5861C47.5923 33.6319 49.5327 33.9887 51.1325 34.6593C53.6096 35.6977 54.5426 36.8844 53.9876 38.2436C53.4311 39.592 51.3573 41.0453 47.6413 42.603L29.8922 50.043L0.922252 37.8994L18.1805 30.6651C21.6639 29.2049 24.999 28.3544 28.1824 28.0733C31.3068 27.7975 34.0283 28.148 36.4143 29.1481C38.0555 29.8361 38.9171 30.62 39.0378 31.5077ZM40.5666 39.5856L40.5666 39.5856L40.5676 39.5833C40.7688 39.1268 40.3637 38.7131 39.5194 38.3592C38.6876 38.0105 37.7107 37.8416 36.6244 37.9086C35.5828 37.9728 34.5569 38.2476 33.5479 38.6705L30.7014 39.8637C29.2809 40.4592 29.2809 41.4246 30.7014 42.0201C32.122 42.6156 34.4252 42.6156 35.8457 42.0201L38.6922 40.8269C39.7035 40.403 40.3807 39.9884 40.5666 39.5856ZM19.9774 37.5248C21.398 38.1203 23.7011 38.1203 25.1217 37.5248L27.2319 36.6402C28.2446 36.2157 28.9124 35.7931 29.067 35.3746C29.2622 34.9236 28.8803 34.5168 28.0591 34.1725C27.2206 33.8211 26.2416 33.6512 25.1616 33.7314C24.128 33.7832 23.1018 34.0587 22.0876 34.4839L19.9774 35.3684C18.5568 35.9639 18.5568 36.9293 19.9774 37.5248Z" fill="#0067D1" stroke="white"/>
</svg>
